<svg width="167" height="30" viewBox="0 0 167 30" fill="none" xmlns="http://www.w3.org/2000/svg">
<path d="M0.886593 29V0.980139H9.74545L16.3149 26.8102H16.4145L22.9342 0.980139H31.7433V29H26.4678L26.8162 3.26951H26.7664L20.0476 29H12.5823L5.96302 3.26951H5.86348L6.16209 29H0.886593ZM43.4079 29.4977C40.5876 29.4977 38.5803 28.5355 37.3858 26.6111C36.1914 24.6867 35.5941 22.1651 35.5941 19.0462C35.5941 15.8942 36.1914 13.356 37.3858 11.4316C38.6135 9.47402 40.6208 8.49523 43.4079 8.49523C45.0005 8.49523 46.2613 8.77726 47.1903 9.34131C48.1193 9.87217 48.8161 10.4694 49.2806 11.133C49.7451 11.7966 50.0271 12.2943 50.1266 12.626H50.2262V8.545H55.4519V29H51.0723L50.2262 25.6655H50.1266C50.0271 25.9641 49.7285 26.4286 49.2308 27.059C48.7663 27.6562 48.0529 28.2203 47.0907 28.7512C46.1617 29.2488 44.9341 29.4977 43.4079 29.4977ZM45.4981 25.2176C47.3562 25.2176 48.6004 24.6369 49.2308 23.4757C49.8944 22.2812 50.2262 20.8213 50.2262 19.096C50.2262 17.2711 49.8944 15.7947 49.2308 14.6666C48.5672 13.5385 47.323 12.9744 45.4981 12.9744C44.2042 12.9744 43.1922 13.2565 42.4622 13.8205C41.7655 14.3845 41.2678 15.1311 40.9692 16.0601C40.7037 16.9559 40.571 17.9679 40.571 19.096C40.571 20.2241 40.7037 21.2526 40.9692 22.1817C41.2678 23.1107 41.7655 23.8572 42.4622 24.4213C43.1922 24.9521 44.2042 25.2176 45.4981 25.2176ZM65.6607 29C64.035 29 62.8073 28.6018 61.9778 27.8055C61.1815 27.0092 60.7834 25.7153 60.7834 23.9236V12.1284H57.6977V8.545C58.6599 8.545 59.4065 8.44547 59.9373 8.24639C60.4682 8.04732 60.8498 7.58281 61.082 6.85286C61.3143 6.12292 61.4304 4.94506 61.4304 3.31927H65.5114V8.545H70.1897V12.1284H65.5114V25.0185H70.2892V29H65.6607ZM83.6199 29.4977C81.6955 29.4977 79.9536 29.1161 78.3942 28.353C76.8348 27.5567 75.5905 26.3954 74.6615 24.8692C73.7325 23.3098 73.268 21.4185 73.268 19.1955C73.3343 16.9725 73.8154 15.0647 74.7113 13.4721C75.6403 11.8795 76.8679 10.6519 78.3942 9.78923C79.9536 8.92656 81.7287 8.49523 83.7194 8.49523C85.7434 8.49523 87.4687 8.89339 88.8954 9.68969C90.3553 10.4528 91.4834 11.4648 92.2797 12.7256C93.076 13.9532 93.5239 15.2306 93.6234 16.5578H88.9452C88.4475 14.1025 86.7553 12.8749 83.8688 12.8749C82.0771 12.8749 80.6835 13.4224 79.6882 14.5173C78.726 15.6122 78.2449 17.0389 78.2449 18.7974C78.2449 20.7218 78.7094 22.2646 79.6384 23.4259C80.6006 24.554 82.0107 25.118 83.8688 25.118C85.1296 25.118 86.2245 24.7862 87.1535 24.1227C88.1157 23.4591 88.7129 22.4803 88.9452 21.1863H93.6234C93.5239 22.613 93.0594 23.9568 92.2299 25.2176C91.4336 26.4784 90.3055 27.5069 88.8456 28.3032C87.4189 29.0995 85.677 29.4977 83.6199 29.4977ZM97.3934 29V0.980139H102.619V12.9744H102.719C102.752 12.8749 102.868 12.6095 103.067 12.1781C103.299 11.7136 103.648 11.1993 104.112 10.6353C104.61 10.0712 105.274 9.59015 106.103 9.192C106.966 8.76067 108.044 8.545 109.338 8.545C111.13 8.545 112.54 8.92657 113.568 9.68969C114.597 10.4196 115.343 11.3486 115.808 12.4767C116.272 13.6048 116.554 14.7661 116.654 15.9606C116.787 17.155 116.853 18.2002 116.853 19.096V29H111.926V19.0462C111.926 17.9513 111.81 16.9559 111.578 16.0601C111.378 15.1311 110.964 14.4011 110.333 13.8703C109.703 13.3062 108.741 13.0242 107.447 13.0242C106.153 13.0242 105.157 13.3228 104.461 13.92C103.764 14.5173 103.283 15.297 103.017 16.2592C102.752 17.1882 102.619 18.1836 102.619 19.2453V29H97.3934Z" fill="#5A5D90"/>
<path d="M126.733 24.919H142.211V29H121.706V0.980139H141.713V5.3598H126.733V12.7256H138.23V16.9062H126.733V24.919ZM154.553 29.4977C151.5 29.4977 149.327 28.5521 148.033 26.6609C146.739 24.7365 146.092 22.2314 146.092 19.1458C146.092 15.9274 146.755 13.356 148.083 11.4316C149.41 9.5072 151.566 8.545 154.553 8.545C155.847 8.545 156.925 8.76067 157.788 9.192C158.683 9.59015 159.38 10.0712 159.878 10.6353C160.409 11.1993 160.79 11.7136 161.023 12.1781C161.255 12.6426 161.387 12.9247 161.421 13.0242H161.52V0.980139H166.746V29H162.366L161.52 25.3669H161.421C161.387 25.4332 161.238 25.6821 160.973 26.1134C160.74 26.5447 160.342 27.0258 159.778 27.5567C159.247 28.0876 158.551 28.5521 157.688 28.9502C156.825 29.3152 155.78 29.4977 154.553 29.4977ZM156.195 25.2176C158.086 25.2176 159.43 24.6535 160.226 23.5254C161.056 22.3642 161.47 20.8877 161.47 19.096C161.47 17.3707 161.072 15.944 160.276 14.8159C159.513 13.6546 158.202 13.074 156.344 13.074C154.984 13.074 153.906 13.3726 153.109 13.9698C152.346 14.5339 151.815 15.2804 151.517 16.2094C151.218 17.1052 151.069 18.0674 151.069 19.096C151.069 20.1246 151.201 21.1199 151.467 22.0821C151.766 23.0111 152.28 23.7743 153.01 24.3715C153.773 24.9355 154.835 25.2176 156.195 25.2176Z" fill="#CFD5F8"/>
</svg>
